<?xml version="1.0" encoding="UTF-8" standalone="no"?>
<!DOCTYPE svg PUBLIC "-//W3C//DTD SVG 1.1//EN"
 "http://www.w3.org/Graphics/SVG/1.1/DTD/svg11.dtd">
<!-- Generated by graphviz version 2.43.0 (0)
 -->
<!-- Title: snakemake_dag Pages: 1 -->
<svg width="136pt" height="548pt"
 viewBox="0.00 0.00 136.00 548.00" xmlns="http://www.w3.org/2000/svg" xmlns:xlink="http://www.w3.org/1999/xlink">
<g id="graph0" class="graph" transform="scale(1 1) rotate(0) translate(4 544)">
<title>snakemake_dag</title>
<polygon fill="white" stroke="transparent" points="-4,4 -4,-544 132,-544 132,4 -4,4"/>
<!-- 0 -->
<g id="node1" class="node">
<title>0</title>
<path fill="none" stroke="#56d89a" stroke-width="2" d="M79,-36C79,-36 49,-36 49,-36 43,-36 37,-30 37,-24 37,-24 37,-12 37,-12 37,-6 43,0 49,0 49,0 79,0 79,0 85,0 91,-6 91,-12 91,-12 91,-24 91,-24 91,-30 85,-36 79,-36"/>
<text text-anchor="middle" x="64" y="-15.5" font-family="sans" font-size="10.00">all</text>
</g>
<!-- 1 -->
<g id="node2" class="node">
<title>1</title>
<path fill="none" stroke="#569ad8" stroke-width="2" d="M79,-108C79,-108 49,-108 49,-108 43,-108 37,-102 37,-96 37,-96 37,-84 37,-84 37,-78 43,-72 49,-72 49,-72 79,-72 79,-72 85,-72 91,-78 91,-84 91,-84 91,-96 91,-96 91,-102 85,-108 79,-108"/>
<text text-anchor="middle" x="64" y="-87.5" font-family="sans" font-size="10.00">Biotype</text>
</g>
<!-- 1&#45;&gt;0 -->
<g id="edge1" class="edge">
<title>1&#45;&gt;0</title>
<path fill="none" stroke="grey" stroke-width="2" d="M64,-71.7C64,-63.98 64,-54.71 64,-46.11"/>
<polygon fill="grey" stroke="grey" stroke-width="2" points="67.5,-46.1 64,-36.1 60.5,-46.1 67.5,-46.1"/>
</g>
<!-- 2 -->
<g id="node3" class="node">
<title>2</title>
<path fill="none" stroke="#59d856" stroke-width="2" d="M95.5,-180C95.5,-180 32.5,-180 32.5,-180 26.5,-180 20.5,-174 20.5,-168 20.5,-168 20.5,-156 20.5,-156 20.5,-150 26.5,-144 32.5,-144 32.5,-144 95.5,-144 95.5,-144 101.5,-144 107.5,-150 107.5,-156 107.5,-156 107.5,-168 107.5,-168 107.5,-174 101.5,-180 95.5,-180"/>
<text text-anchor="middle" x="64" y="-159.5" font-family="sans" font-size="10.00">ExtractGeneID</text>
</g>
<!-- 2&#45;&gt;1 -->
<g id="edge2" class="edge">
<title>2&#45;&gt;1</title>
<path fill="none" stroke="grey" stroke-width="2" d="M64,-143.7C64,-135.98 64,-126.71 64,-118.11"/>
<polygon fill="grey" stroke="grey" stroke-width="2" points="67.5,-118.1 64,-108.1 60.5,-118.1 67.5,-118.1"/>
</g>
<!-- 3 -->
<g id="node4" class="node">
<title>3</title>
<path fill="none" stroke="#56d8d8" stroke-width="2" d="M93,-252C93,-252 35,-252 35,-252 29,-252 23,-246 23,-240 23,-240 23,-228 23,-228 23,-222 29,-216 35,-216 35,-216 93,-216 93,-216 99,-216 105,-222 105,-228 105,-228 105,-240 105,-240 105,-246 99,-252 93,-252"/>
<text text-anchor="middle" x="64" y="-231.5" font-family="sans" font-size="10.00">Check_inputs</text>
</g>
<!-- 3&#45;&gt;2 -->
<g id="edge3" class="edge">
<title>3&#45;&gt;2</title>
<path fill="none" stroke="grey" stroke-width="2" d="M64,-215.7C64,-207.98 64,-198.71 64,-190.11"/>
<polygon fill="grey" stroke="grey" stroke-width="2" points="67.5,-190.1 64,-180.1 60.5,-190.1 67.5,-190.1"/>
</g>
<!-- 4 -->
<g id="node5" class="node">
<title>4</title>
<path fill="none" stroke="#d89556" stroke-width="2" d="M83,-324C83,-324 45,-324 45,-324 39,-324 33,-318 33,-312 33,-312 33,-300 33,-300 33,-294 39,-288 45,-288 45,-288 83,-288 83,-288 89,-288 95,-294 95,-300 95,-300 95,-312 95,-312 95,-318 89,-324 83,-324"/>
<text text-anchor="middle" x="64" y="-303.5" font-family="sans" font-size="10.00">unzipREF</text>
</g>
<!-- 4&#45;&gt;3 -->
<g id="edge4" class="edge">
<title>4&#45;&gt;3</title>
<path fill="none" stroke="grey" stroke-width="2" d="M64,-287.7C64,-279.98 64,-270.71 64,-262.11"/>
<polygon fill="grey" stroke="grey" stroke-width="2" points="67.5,-262.1 64,-252.1 60.5,-262.1 67.5,-262.1"/>
</g>
<!-- 5 -->
<g id="node6" class="node">
<title>5</title>
<path fill="none" stroke="#97d856" stroke-width="2" d="M100,-396C100,-396 28,-396 28,-396 22,-396 16,-390 16,-384 16,-384 16,-372 16,-372 16,-366 22,-360 28,-360 28,-360 100,-360 100,-360 106,-360 112,-366 112,-372 112,-372 112,-384 112,-384 112,-390 106,-396 100,-396"/>
<text text-anchor="middle" x="64" y="-375.5" font-family="sans" font-size="10.00">DLrefAnnotation</text>
</g>
<!-- 5&#45;&gt;4 -->
<g id="edge5" class="edge">
<title>5&#45;&gt;4</title>
<path fill="none" stroke="grey" stroke-width="2" d="M64,-359.7C64,-351.98 64,-342.71 64,-334.11"/>
<polygon fill="grey" stroke="grey" stroke-width="2" points="67.5,-334.1 64,-324.1 60.5,-334.1 67.5,-334.1"/>
</g>
<!-- 6 -->
<g id="node7" class="node">
<title>6</title>
<path fill="none" stroke="#d85656" stroke-width="2" d="M97.5,-468C97.5,-468 30.5,-468 30.5,-468 24.5,-468 18.5,-462 18.5,-456 18.5,-456 18.5,-444 18.5,-444 18.5,-438 24.5,-432 30.5,-432 30.5,-432 97.5,-432 97.5,-432 103.5,-432 109.5,-438 109.5,-444 109.5,-444 109.5,-456 109.5,-456 109.5,-462 103.5,-468 97.5,-468"/>
<text text-anchor="middle" x="64" y="-447.5" font-family="sans" font-size="10.00">DLrefAssembly</text>
</g>
<!-- 6&#45;&gt;5 -->
<g id="edge6" class="edge">
<title>6&#45;&gt;5</title>
<path fill="none" stroke="grey" stroke-width="2" d="M64,-431.7C64,-423.98 64,-414.71 64,-406.11"/>
<polygon fill="grey" stroke="grey" stroke-width="2" points="67.5,-406.1 64,-396.1 60.5,-406.1 67.5,-406.1"/>
</g>
<!-- 7 -->
<g id="node8" class="node">
<title>7</title>
<path fill="none" stroke="#d6d856" stroke-width="2" d="M116,-540C116,-540 12,-540 12,-540 6,-540 0,-534 0,-528 0,-528 0,-516 0,-516 0,-510 6,-504 12,-504 12,-504 116,-504 116,-504 122,-504 128,-510 128,-516 128,-516 128,-528 128,-528 128,-534 122,-540 116,-540"/>
<text text-anchor="middle" x="64" y="-519.5" font-family="sans" font-size="10.00">FastqScreen_download</text>
</g>
<!-- 7&#45;&gt;6 -->
<g id="edge7" class="edge">
<title>7&#45;&gt;6</title>
<path fill="none" stroke="grey" stroke-width="2" d="M64,-503.7C64,-495.98 64,-486.71 64,-478.11"/>
<polygon fill="grey" stroke="grey" stroke-width="2" points="67.5,-478.1 64,-468.1 60.5,-478.1 67.5,-478.1"/>
</g>
</g>
</svg>
