<?xml version="1.0" encoding="UTF-8" standalone="no"?>
<!DOCTYPE svg PUBLIC "-//W3C//DTD SVG 1.1//EN"
 "http://www.w3.org/Graphics/SVG/1.1/DTD/svg11.dtd">
<!-- Generated by graphviz version 2.43.0 (0)
 -->
<!-- Title: snakemake_dag Pages: 1 -->
<svg width="166pt" height="260pt"
 viewBox="0.00 0.00 166.00 260.00" xmlns="http://www.w3.org/2000/svg" xmlns:xlink="http://www.w3.org/1999/xlink">
<g id="graph0" class="graph" transform="scale(1 1) rotate(0) translate(4 256)">
<title>snakemake_dag</title>
<polygon fill="white" stroke="transparent" points="-4,4 -4,-256 162,-256 162,4 -4,4"/>
<!-- 0 -->
<g id="node1" class="node">
<title>0</title>
<path fill="none" stroke="#56d8d8" stroke-width="2" d="M94,-36C94,-36 64,-36 64,-36 58,-36 52,-30 52,-24 52,-24 52,-12 52,-12 52,-6 58,0 64,0 64,0 94,0 94,0 100,0 106,-6 106,-12 106,-12 106,-24 106,-24 106,-30 100,-36 94,-36"/>
<text text-anchor="middle" x="79" y="-15.5" font-family="sans" font-size="10.00">all</text>
</g>
<!-- 1 -->
<g id="node2" class="node">
<title>1</title>
<path fill="none" stroke="#d6d856" stroke-width="2" d="M94,-108C94,-108 64,-108 64,-108 58,-108 52,-102 52,-96 52,-96 52,-84 52,-84 52,-78 58,-72 64,-72 64,-72 94,-72 94,-72 100,-72 106,-78 106,-84 106,-84 106,-96 106,-96 106,-102 100,-108 94,-108"/>
<text text-anchor="middle" x="79" y="-87.5" font-family="sans" font-size="10.00">logPLot</text>
</g>
<!-- 1&#45;&gt;0 -->
<g id="edge1" class="edge">
<title>1&#45;&gt;0</title>
<path fill="none" stroke="grey" stroke-width="2" d="M79,-71.7C79,-63.98 79,-54.71 79,-46.11"/>
<polygon fill="grey" stroke="grey" stroke-width="2" points="82.5,-46.1 79,-36.1 75.5,-46.1 82.5,-46.1"/>
</g>
<!-- 2 -->
<g id="node3" class="node">
<title>2</title>
<path fill="none" stroke="#d85656" stroke-width="2" d="M111,-180C111,-180 47,-180 47,-180 41,-180 35,-174 35,-168 35,-168 35,-156 35,-156 35,-150 41,-144 47,-144 47,-144 111,-144 111,-144 117,-144 123,-150 123,-156 123,-156 123,-168 123,-168 123,-174 117,-180 111,-180"/>
<text text-anchor="middle" x="79" y="-159.5" font-family="sans" font-size="10.00">Categorization</text>
</g>
<!-- 2&#45;&gt;1 -->
<g id="edge2" class="edge">
<title>2&#45;&gt;1</title>
<path fill="none" stroke="grey" stroke-width="2" d="M79,-143.7C79,-135.98 79,-126.71 79,-118.11"/>
<polygon fill="grey" stroke="grey" stroke-width="2" points="82.5,-118.1 79,-108.1 75.5,-118.1 82.5,-118.1"/>
</g>
<!-- 3 -->
<g id="node4" class="node">
<title>3</title>
<path fill="none" stroke="#59d856" stroke-width="2" d="M146,-252C146,-252 12,-252 12,-252 6,-252 0,-246 0,-240 0,-240 0,-228 0,-228 0,-222 6,-216 12,-216 12,-216 146,-216 146,-216 152,-216 158,-222 158,-228 158,-228 158,-240 158,-240 158,-246 152,-252 146,-252"/>
<text text-anchor="middle" x="79" y="-231.5" font-family="sans" font-size="10.00">Diff_gene_expression_limma</text>
</g>
<!-- 3&#45;&gt;2 -->
<g id="edge3" class="edge">
<title>3&#45;&gt;2</title>
<path fill="none" stroke="grey" stroke-width="2" d="M79,-215.7C79,-207.98 79,-198.71 79,-190.11"/>
<polygon fill="grey" stroke="grey" stroke-width="2" points="82.5,-190.1 79,-180.1 75.5,-190.1 82.5,-190.1"/>
</g>
</g>
</svg>
