<?xml version="1.0" encoding="UTF-8" standalone="no"?>
<!DOCTYPE svg PUBLIC "-//W3C//DTD SVG 1.1//EN"
 "http://www.w3.org/Graphics/SVG/1.1/DTD/svg11.dtd">
<!-- Generated by graphviz version 2.43.0 (0)
 -->
<!-- Title: snakemake_dag Pages: 1 -->
<svg width="226pt" height="404pt"
 viewBox="0.00 0.00 225.60 404.00" xmlns="http://www.w3.org/2000/svg" xmlns:xlink="http://www.w3.org/1999/xlink">
<g id="graph0" class="graph" transform="scale(1 1) rotate(0) translate(4 400)">
<title>snakemake_dag</title>
<polygon fill="white" stroke="transparent" points="-4,4 -4,-400 221.6,-400 221.6,4 -4,4"/>
<!-- 0 -->
<g id="node1" class="node">
<title>0</title>
<path fill="none" stroke="#59d856" stroke-width="2" d="M189,-36C189,-36 159,-36 159,-36 153,-36 147,-30 147,-24 147,-24 147,-12 147,-12 147,-6 153,0 159,0 159,0 189,0 189,0 195,0 201,-6 201,-12 201,-12 201,-24 201,-24 201,-30 195,-36 189,-36"/>
<text text-anchor="middle" x="174" y="-15.5" font-family="sans" font-size="10.00">all</text>
</g>
<!-- 1 -->
<g id="node2" class="node">
<title>1</title>
<path fill="none" stroke="#d85656" stroke-width="2" d="M151,-108C151,-108 87,-108 87,-108 81,-108 75,-102 75,-96 75,-96 75,-84 75,-84 75,-78 81,-72 87,-72 87,-72 151,-72 151,-72 157,-72 163,-78 163,-84 163,-84 163,-96 163,-96 163,-102 157,-108 151,-108"/>
<text text-anchor="middle" x="119" y="-87.5" font-family="sans" font-size="10.00">general_report</text>
</g>
<!-- 1&#45;&gt;0 -->
<g id="edge1" class="edge">
<title>1&#45;&gt;0</title>
<path fill="none" stroke="grey" stroke-width="2" d="M132.6,-71.7C139.12,-63.39 147.07,-53.28 154.25,-44.14"/>
<polygon fill="grey" stroke="grey" stroke-width="2" points="157.13,-46.13 160.56,-36.1 151.63,-41.81 157.13,-46.13"/>
</g>
<!-- 2 -->
<g id="node3" class="node">
<title>2</title>
<path fill="none" stroke="#56d8a9" stroke-width="2" d="M147,-324C147,-324 83,-324 83,-324 77,-324 71,-318 71,-312 71,-312 71,-300 71,-300 71,-294 77,-288 83,-288 83,-288 147,-288 147,-288 153,-288 159,-294 159,-300 159,-300 159,-312 159,-312 159,-318 153,-324 147,-324"/>
<text text-anchor="middle" x="115" y="-303.5" font-family="sans" font-size="10.00">Categorization</text>
</g>
<!-- 2&#45;&gt;1 -->
<g id="edge5" class="edge">
<title>2&#45;&gt;1</title>
<path fill="none" stroke="grey" stroke-width="2" d="M115.32,-287.85C116.01,-250.83 117.65,-163.18 118.49,-118.39"/>
<polygon fill="grey" stroke="grey" stroke-width="2" points="121.99,-118.3 118.68,-108.23 114.99,-118.17 121.99,-118.3"/>
</g>
<!-- 4 -->
<g id="node5" class="node">
<title>4</title>
<path fill="none" stroke="#afd856" stroke-width="2" d="M170,-252C170,-252 140,-252 140,-252 134,-252 128,-246 128,-240 128,-240 128,-228 128,-228 128,-222 134,-216 140,-216 140,-216 170,-216 170,-216 176,-216 182,-222 182,-228 182,-228 182,-240 182,-240 182,-246 176,-252 170,-252"/>
<text text-anchor="middle" x="155" y="-231.5" font-family="sans" font-size="10.00">logPLot</text>
</g>
<!-- 2&#45;&gt;4 -->
<g id="edge8" class="edge">
<title>2&#45;&gt;4</title>
<path fill="none" stroke="grey" stroke-width="2" d="M124.89,-287.7C129.49,-279.64 135.06,-269.89 140.15,-260.98"/>
<polygon fill="grey" stroke="grey" stroke-width="2" points="143.3,-262.52 145.23,-252.1 137.23,-259.05 143.3,-262.52"/>
</g>
<!-- 3 -->
<g id="node4" class="node">
<title>3</title>
<path fill="none" stroke="#d8ac56" stroke-width="2" d="M146,-396C146,-396 12,-396 12,-396 6,-396 0,-390 0,-384 0,-384 0,-372 0,-372 0,-366 6,-360 12,-360 12,-360 146,-360 146,-360 152,-360 158,-366 158,-372 158,-372 158,-384 158,-384 158,-390 152,-396 146,-396"/>
<text text-anchor="middle" x="79" y="-375.5" font-family="sans" font-size="10.00">Diff_gene_expression_limma</text>
</g>
<!-- 3&#45;&gt;1 -->
<g id="edge4" class="edge">
<title>3&#45;&gt;1</title>
<path fill="none" stroke="grey" stroke-width="2" d="M71.93,-359.67C68.16,-349.47 63.91,-336.22 62,-324 59.53,-308.19 59.75,-303.84 62,-288 70.86,-225.49 94.8,-155.06 108.67,-117.67"/>
<polygon fill="grey" stroke="grey" stroke-width="2" points="112.05,-118.63 112.3,-108.03 105.5,-116.16 112.05,-118.63"/>
</g>
<!-- 3&#45;&gt;2 -->
<g id="edge7" class="edge">
<title>3&#45;&gt;2</title>
<path fill="none" stroke="grey" stroke-width="2" d="M87.9,-359.7C92,-351.73 96.95,-342.1 101.49,-333.26"/>
<polygon fill="grey" stroke="grey" stroke-width="2" points="104.74,-334.6 106.2,-324.1 98.52,-331.4 104.74,-334.6"/>
</g>
<!-- 4&#45;&gt;0 -->
<g id="edge2" class="edge">
<title>4&#45;&gt;0</title>
<path fill="none" stroke="grey" stroke-width="2" d="M180.38,-215.95C191.71,-206.79 203.88,-194.4 210,-180 229.28,-134.66 206.39,-77.56 189.3,-44.97"/>
<polygon fill="grey" stroke="grey" stroke-width="2" points="192.31,-43.18 184.46,-36.07 186.17,-46.53 192.31,-43.18"/>
</g>
<!-- 4&#45;&gt;1 -->
<g id="edge6" class="edge">
<title>4&#45;&gt;1</title>
<path fill="none" stroke="grey" stroke-width="2" d="M149.05,-215.94C145.57,-205.62 141.23,-192.14 138,-180 132.54,-159.52 127.59,-136.06 124.11,-118.37"/>
<polygon fill="grey" stroke="grey" stroke-width="2" points="127.47,-117.34 122.14,-108.18 120.6,-118.66 127.47,-117.34"/>
</g>
<!-- 5 -->
<g id="node6" class="node">
<title>5</title>
<path fill="none" stroke="#56a9d8" stroke-width="2" d="M189,-180C189,-180 159,-180 159,-180 153,-180 147,-174 147,-168 147,-168 147,-156 147,-156 147,-150 153,-144 159,-144 159,-144 189,-144 189,-144 195,-144 201,-150 201,-156 201,-156 201,-168 201,-168 201,-174 195,-180 189,-180"/>
<text text-anchor="middle" x="174" y="-159.5" font-family="sans" font-size="10.00">clean</text>
</g>
<!-- 4&#45;&gt;5 -->
<g id="edge9" class="edge">
<title>4&#45;&gt;5</title>
<path fill="none" stroke="grey" stroke-width="2" d="M159.7,-215.7C161.81,-207.9 164.36,-198.51 166.72,-189.83"/>
<polygon fill="grey" stroke="grey" stroke-width="2" points="170.12,-190.67 169.36,-180.1 163.36,-188.84 170.12,-190.67"/>
</g>
<!-- 5&#45;&gt;1 -->
<g id="edge3" class="edge">
<title>5&#45;&gt;1</title>
<path fill="none" stroke="grey" stroke-width="2" d="M160.4,-143.7C153.88,-135.39 145.93,-125.28 138.75,-116.14"/>
<polygon fill="grey" stroke="grey" stroke-width="2" points="141.37,-113.81 132.44,-108.1 135.87,-118.13 141.37,-113.81"/>
</g>
</g>
</svg>
