<?xml version="1.0" encoding="UTF-8" standalone="no"?>
<!DOCTYPE svg PUBLIC "-//W3C//DTD SVG 1.1//EN"
 "http://www.w3.org/Graphics/SVG/1.1/DTD/svg11.dtd">
<!-- Generated by graphviz version 2.43.0 (0)
 -->
<!-- Title: snakemake_dag Pages: 1 -->
<svg width="278pt" height="332pt"
 viewBox="0.00 0.00 277.50 332.00" xmlns="http://www.w3.org/2000/svg" xmlns:xlink="http://www.w3.org/1999/xlink">
<g id="graph0" class="graph" transform="scale(1 1) rotate(0) translate(4 328)">
<title>snakemake_dag</title>
<polygon fill="white" stroke="transparent" points="-4,4 -4,-328 273.5,-328 273.5,4 -4,4"/>
<!-- 0 -->
<g id="node1" class="node">
<title>0</title>
<path fill="none" stroke="#afd856" stroke-width="2" d="M107,-36C107,-36 77,-36 77,-36 71,-36 65,-30 65,-24 65,-24 65,-12 65,-12 65,-6 71,0 77,0 77,0 107,0 107,0 113,0 119,-6 119,-12 119,-12 119,-24 119,-24 119,-30 113,-36 107,-36"/>
<text text-anchor="middle" x="92" y="-15.5" font-family="sans" font-size="10.00">all</text>
</g>
<!-- 1 -->
<g id="node2" class="node">
<title>1</title>
<path fill="none" stroke="#d8ac56" stroke-width="2" d="M92,-180C92,-180 12,-180 12,-180 6,-180 0,-174 0,-168 0,-168 0,-156 0,-156 0,-150 6,-144 12,-144 12,-144 92,-144 92,-144 98,-144 104,-150 104,-156 104,-156 104,-168 104,-168 104,-174 98,-180 92,-180"/>
<text text-anchor="middle" x="52" y="-159.5" font-family="sans" font-size="10.00">AverageInsertSize</text>
</g>
<!-- 1&#45;&gt;0 -->
<g id="edge2" class="edge">
<title>1&#45;&gt;0</title>
<path fill="none" stroke="grey" stroke-width="2" d="M54.81,-143.72C57.95,-125.63 63.59,-96.5 71,-72 73.64,-63.28 77.09,-53.99 80.43,-45.65"/>
<polygon fill="grey" stroke="grey" stroke-width="2" points="83.67,-46.98 84.25,-36.41 77.2,-44.31 83.67,-46.98"/>
</g>
<!-- 2 -->
<g id="node3" class="node">
<title>2</title>
<path fill="none" stroke="#56d8a9" stroke-width="2" d="M150.5,-324C150.5,-324 113.5,-324 113.5,-324 107.5,-324 101.5,-318 101.5,-312 101.5,-312 101.5,-300 101.5,-300 101.5,-294 107.5,-288 113.5,-288 113.5,-288 150.5,-288 150.5,-288 156.5,-288 162.5,-294 162.5,-300 162.5,-300 162.5,-312 162.5,-312 162.5,-318 156.5,-324 150.5,-324"/>
<text text-anchor="middle" x="132" y="-303.5" font-family="sans" font-size="10.00">Cutadapt</text>
</g>
<!-- 2&#45;&gt;1 -->
<g id="edge3" class="edge">
<title>2&#45;&gt;1</title>
<path fill="none" stroke="grey" stroke-width="2" d="M122.35,-287.87C108.54,-263.35 83,-218.03 66.79,-189.26"/>
<polygon fill="grey" stroke="grey" stroke-width="2" points="69.64,-187.18 61.68,-180.19 63.54,-190.62 69.64,-187.18"/>
</g>
<!-- 3 -->
<g id="node4" class="node">
<title>3</title>
<path fill="none" stroke="#d85656" stroke-width="2" d="M172,-108C172,-108 92,-108 92,-108 86,-108 80,-102 80,-96 80,-96 80,-84 80,-84 80,-78 86,-72 92,-72 92,-72 172,-72 172,-72 178,-72 184,-78 184,-84 184,-84 184,-96 184,-96 184,-102 178,-108 172,-108"/>
<text text-anchor="middle" x="132" y="-87.5" font-family="sans" font-size="10.00">MultiQC_cutadapt</text>
</g>
<!-- 2&#45;&gt;3 -->
<g id="edge4" class="edge">
<title>2&#45;&gt;3</title>
<path fill="none" stroke="grey" stroke-width="2" d="M132,-287.85C132,-250.83 132,-163.18 132,-118.39"/>
<polygon fill="grey" stroke="grey" stroke-width="2" points="135.5,-118.23 132,-108.23 128.5,-118.23 135.5,-118.23"/>
</g>
<!-- 5 -->
<g id="node6" class="node">
<title>5</title>
<path fill="none" stroke="#59d856" stroke-width="2" d="M253,-252C253,-252 173,-252 173,-252 167,-252 161,-246 161,-240 161,-240 161,-228 161,-228 161,-222 167,-216 173,-216 173,-216 253,-216 253,-216 259,-216 265,-222 265,-228 265,-228 265,-240 265,-240 265,-246 259,-252 253,-252"/>
<text text-anchor="middle" x="213" y="-231.5" font-family="sans" font-size="10.00">FastQC_after_trim</text>
</g>
<!-- 2&#45;&gt;5 -->
<g id="edge7" class="edge">
<title>2&#45;&gt;5</title>
<path fill="none" stroke="grey" stroke-width="2" d="M152.02,-287.7C162.13,-278.97 174.54,-268.24 185.52,-258.75"/>
<polygon fill="grey" stroke="grey" stroke-width="2" points="187.93,-261.29 193.21,-252.1 183.35,-255.99 187.93,-261.29"/>
</g>
<!-- 3&#45;&gt;0 -->
<g id="edge1" class="edge">
<title>3&#45;&gt;0</title>
<path fill="none" stroke="grey" stroke-width="2" d="M122.11,-71.7C117.51,-63.64 111.94,-53.89 106.85,-44.98"/>
<polygon fill="grey" stroke="grey" stroke-width="2" points="109.77,-43.05 101.77,-36.1 103.7,-46.52 109.77,-43.05"/>
</g>
<!-- 4 -->
<g id="node5" class="node">
<title>4</title>
<path fill="none" stroke="#56a9d8" stroke-width="2" d="M257.5,-180C257.5,-180 172.5,-180 172.5,-180 166.5,-180 160.5,-174 160.5,-168 160.5,-168 160.5,-156 160.5,-156 160.5,-150 166.5,-144 172.5,-144 172.5,-144 257.5,-144 257.5,-144 263.5,-144 269.5,-150 269.5,-156 269.5,-156 269.5,-168 269.5,-168 269.5,-174 263.5,-180 257.5,-180"/>
<text text-anchor="middle" x="215" y="-159.5" font-family="sans" font-size="10.00">MultiQC_after_trim</text>
</g>
<!-- 4&#45;&gt;3 -->
<g id="edge5" class="edge">
<title>4&#45;&gt;3</title>
<path fill="none" stroke="grey" stroke-width="2" d="M194.48,-143.7C184.13,-134.97 171.41,-124.24 160.16,-114.75"/>
<polygon fill="grey" stroke="grey" stroke-width="2" points="162.18,-111.88 152.28,-108.1 157.67,-117.23 162.18,-111.88"/>
</g>
<!-- 5&#45;&gt;4 -->
<g id="edge6" class="edge">
<title>5&#45;&gt;4</title>
<path fill="none" stroke="grey" stroke-width="2" d="M213.49,-215.7C213.71,-207.98 213.98,-198.71 214.23,-190.11"/>
<polygon fill="grey" stroke="grey" stroke-width="2" points="217.72,-190.2 214.51,-180.1 210.73,-190 217.72,-190.2"/>
</g>
</g>
</svg>
