<?xml version="1.0" encoding="UTF-8" standalone="no"?>
<!DOCTYPE svg PUBLIC "-//W3C//DTD SVG 1.1//EN"
 "http://www.w3.org/Graphics/SVG/1.1/DTD/svg11.dtd">
<!-- Generated by graphviz version 2.43.0 (0)
 -->
<!-- Title: snakemake_dag Pages: 1 -->
<svg width="228pt" height="404pt"
 viewBox="0.00 0.00 227.60 404.00" xmlns="http://www.w3.org/2000/svg" xmlns:xlink="http://www.w3.org/1999/xlink">
<g id="graph0" class="graph" transform="scale(1 1) rotate(0) translate(4 400)">
<title>snakemake_dag</title>
<polygon fill="white" stroke="transparent" points="-4,4 -4,-400 223.6,-400 223.6,4 -4,4"/>
<!-- 0 -->
<g id="node1" class="node">
<title>0</title>
<path fill="none" stroke="#56d8a9" stroke-width="2" d="M191,-36C191,-36 161,-36 161,-36 155,-36 149,-30 149,-24 149,-24 149,-12 149,-12 149,-6 155,0 161,0 161,0 191,0 191,0 197,0 203,-6 203,-12 203,-12 203,-24 203,-24 203,-30 197,-36 191,-36"/>
<text text-anchor="middle" x="176" y="-15.5" font-family="sans" font-size="10.00">all</text>
</g>
<!-- 1 -->
<g id="node2" class="node">
<title>1</title>
<path fill="none" stroke="#d85656" stroke-width="2" d="M153,-108C153,-108 89,-108 89,-108 83,-108 77,-102 77,-96 77,-96 77,-84 77,-84 77,-78 83,-72 89,-72 89,-72 153,-72 153,-72 159,-72 165,-78 165,-84 165,-84 165,-96 165,-96 165,-102 159,-108 153,-108"/>
<text text-anchor="middle" x="121" y="-87.5" font-family="sans" font-size="10.00">general_report</text>
</g>
<!-- 1&#45;&gt;0 -->
<g id="edge1" class="edge">
<title>1&#45;&gt;0</title>
<path fill="none" stroke="grey" stroke-width="2" d="M134.6,-71.7C141.12,-63.39 149.07,-53.28 156.25,-44.14"/>
<polygon fill="grey" stroke="grey" stroke-width="2" points="159.13,-46.13 162.56,-36.1 153.63,-41.81 159.13,-46.13"/>
</g>
<!-- 2 -->
<g id="node3" class="node">
<title>2</title>
<path fill="none" stroke="#56a9d8" stroke-width="2" d="M149,-324C149,-324 85,-324 85,-324 79,-324 73,-318 73,-312 73,-312 73,-300 73,-300 73,-294 79,-288 85,-288 85,-288 149,-288 149,-288 155,-288 161,-294 161,-300 161,-300 161,-312 161,-312 161,-318 155,-324 149,-324"/>
<text text-anchor="middle" x="117" y="-303.5" font-family="sans" font-size="10.00">Categorization</text>
</g>
<!-- 2&#45;&gt;1 -->
<g id="edge6" class="edge">
<title>2&#45;&gt;1</title>
<path fill="none" stroke="grey" stroke-width="2" d="M117.32,-287.85C118.01,-250.83 119.65,-163.18 120.49,-118.39"/>
<polygon fill="grey" stroke="grey" stroke-width="2" points="123.99,-118.3 120.68,-108.23 116.99,-118.17 123.99,-118.3"/>
</g>
<!-- 4 -->
<g id="node5" class="node">
<title>4</title>
<path fill="none" stroke="#59d856" stroke-width="2" d="M172,-252C172,-252 142,-252 142,-252 136,-252 130,-246 130,-240 130,-240 130,-228 130,-228 130,-222 136,-216 142,-216 142,-216 172,-216 172,-216 178,-216 184,-222 184,-228 184,-228 184,-240 184,-240 184,-246 178,-252 172,-252"/>
<text text-anchor="middle" x="157" y="-231.5" font-family="sans" font-size="10.00">logPLot</text>
</g>
<!-- 2&#45;&gt;4 -->
<g id="edge8" class="edge">
<title>2&#45;&gt;4</title>
<path fill="none" stroke="grey" stroke-width="2" d="M126.89,-287.7C131.49,-279.64 137.06,-269.89 142.15,-260.98"/>
<polygon fill="grey" stroke="grey" stroke-width="2" points="145.3,-262.52 147.23,-252.1 139.23,-259.05 145.3,-262.52"/>
</g>
<!-- 3 -->
<g id="node4" class="node">
<title>3</title>
<path fill="none" stroke="#afd856" stroke-width="2" d="M150,-396C150,-396 12,-396 12,-396 6,-396 0,-390 0,-384 0,-384 0,-372 0,-372 0,-366 6,-360 12,-360 12,-360 150,-360 150,-360 156,-360 162,-366 162,-372 162,-372 162,-384 162,-384 162,-390 156,-396 150,-396"/>
<text text-anchor="middle" x="81" y="-375.5" font-family="sans" font-size="10.00">Diff_gene_expression_deseq2</text>
</g>
<!-- 3&#45;&gt;1 -->
<g id="edge5" class="edge">
<title>3&#45;&gt;1</title>
<path fill="none" stroke="grey" stroke-width="2" d="M73.93,-359.67C70.16,-349.47 65.91,-336.22 64,-324 61.53,-308.19 61.75,-303.84 64,-288 72.86,-225.49 96.8,-155.06 110.67,-117.67"/>
<polygon fill="grey" stroke="grey" stroke-width="2" points="114.05,-118.63 114.3,-108.03 107.5,-116.16 114.05,-118.63"/>
</g>
<!-- 3&#45;&gt;2 -->
<g id="edge7" class="edge">
<title>3&#45;&gt;2</title>
<path fill="none" stroke="grey" stroke-width="2" d="M89.9,-359.7C94,-351.73 98.95,-342.1 103.49,-333.26"/>
<polygon fill="grey" stroke="grey" stroke-width="2" points="106.74,-334.6 108.2,-324.1 100.52,-331.4 106.74,-334.6"/>
</g>
<!-- 4&#45;&gt;0 -->
<g id="edge2" class="edge">
<title>4&#45;&gt;0</title>
<path fill="none" stroke="grey" stroke-width="2" d="M182.38,-215.95C193.71,-206.79 205.88,-194.4 212,-180 231.28,-134.66 208.39,-77.56 191.3,-44.97"/>
<polygon fill="grey" stroke="grey" stroke-width="2" points="194.31,-43.18 186.46,-36.07 188.17,-46.53 194.31,-43.18"/>
</g>
<!-- 4&#45;&gt;1 -->
<g id="edge4" class="edge">
<title>4&#45;&gt;1</title>
<path fill="none" stroke="grey" stroke-width="2" d="M151.05,-215.94C147.57,-205.62 143.23,-192.14 140,-180 134.54,-159.52 129.59,-136.06 126.11,-118.37"/>
<polygon fill="grey" stroke="grey" stroke-width="2" points="129.47,-117.34 124.14,-108.18 122.6,-118.66 129.47,-117.34"/>
</g>
<!-- 5 -->
<g id="node6" class="node">
<title>5</title>
<path fill="none" stroke="#d8ac56" stroke-width="2" d="M191,-180C191,-180 161,-180 161,-180 155,-180 149,-174 149,-168 149,-168 149,-156 149,-156 149,-150 155,-144 161,-144 161,-144 191,-144 191,-144 197,-144 203,-150 203,-156 203,-156 203,-168 203,-168 203,-174 197,-180 191,-180"/>
<text text-anchor="middle" x="176" y="-159.5" font-family="sans" font-size="10.00">clean</text>
</g>
<!-- 4&#45;&gt;5 -->
<g id="edge9" class="edge">
<title>4&#45;&gt;5</title>
<path fill="none" stroke="grey" stroke-width="2" d="M161.7,-215.7C163.81,-207.9 166.36,-198.51 168.72,-189.83"/>
<polygon fill="grey" stroke="grey" stroke-width="2" points="172.12,-190.67 171.36,-180.1 165.36,-188.84 172.12,-190.67"/>
</g>
<!-- 5&#45;&gt;1 -->
<g id="edge3" class="edge">
<title>5&#45;&gt;1</title>
<path fill="none" stroke="grey" stroke-width="2" d="M162.4,-143.7C155.88,-135.39 147.93,-125.28 140.75,-116.14"/>
<polygon fill="grey" stroke="grey" stroke-width="2" points="143.37,-113.81 134.44,-108.1 137.87,-118.13 143.37,-113.81"/>
</g>
</g>
</svg>
