<?xml version="1.0" encoding="UTF-8" standalone="no"?>
<!DOCTYPE svg PUBLIC "-//W3C//DTD SVG 1.1//EN"
 "http://www.w3.org/Graphics/SVG/1.1/DTD/svg11.dtd">
<!-- Generated by graphviz version 2.43.0 (0)
 -->
<!-- Title: snakemake_dag Pages: 1 -->
<svg width="204pt" height="188pt"
 viewBox="0.00 0.00 203.50 188.00" xmlns="http://www.w3.org/2000/svg" xmlns:xlink="http://www.w3.org/1999/xlink">
<g id="graph0" class="graph" transform="scale(1 1) rotate(0) translate(4 184)">
<title>snakemake_dag</title>
<polygon fill="white" stroke="transparent" points="-4,4 -4,-184 199.5,-184 199.5,4 -4,4"/>
<!-- 0 -->
<g id="node1" class="node">
<title>0</title>
<path fill="none" stroke="#d85656" stroke-width="2" d="M95,-36C95,-36 65,-36 65,-36 59,-36 53,-30 53,-24 53,-24 53,-12 53,-12 53,-6 59,0 65,0 65,0 95,0 95,0 101,0 107,-6 107,-12 107,-12 107,-24 107,-24 107,-30 101,-36 95,-36"/>
<text text-anchor="middle" x="80" y="-15.5" font-family="sans" font-size="10.00">all</text>
</g>
<!-- 1 -->
<g id="node2" class="node">
<title>1</title>
<path fill="none" stroke="#56c1d8" stroke-width="2" d="M47,-108C47,-108 15,-108 15,-108 9,-108 3,-102 3,-96 3,-96 3,-84 3,-84 3,-78 9,-72 15,-72 15,-72 47,-72 47,-72 53,-72 59,-78 59,-84 59,-84 59,-96 59,-96 59,-102 53,-108 47,-108"/>
<text text-anchor="middle" x="31" y="-87.5" font-family="sans" font-size="10.00">MultiQC</text>
</g>
<!-- 1&#45;&gt;0 -->
<g id="edge2" class="edge">
<title>1&#45;&gt;0</title>
<path fill="none" stroke="grey" stroke-width="2" d="M43.11,-71.7C48.87,-63.47 55.86,-53.48 62.21,-44.42"/>
<polygon fill="grey" stroke="grey" stroke-width="2" points="65.16,-46.3 68.03,-36.1 59.42,-42.29 65.16,-46.3"/>
</g>
<!-- 2 -->
<g id="node3" class="node">
<title>2</title>
<path fill="none" stroke="#88d856" stroke-width="2" d="M42,-180C42,-180 12,-180 12,-180 6,-180 0,-174 0,-168 0,-168 0,-156 0,-156 0,-150 6,-144 12,-144 12,-144 42,-144 42,-144 48,-144 54,-150 54,-156 54,-156 54,-168 54,-168 54,-174 48,-180 42,-180"/>
<text text-anchor="middle" x="27" y="-159.5" font-family="sans" font-size="10.00">FastQC</text>
</g>
<!-- 2&#45;&gt;1 -->
<g id="edge3" class="edge">
<title>2&#45;&gt;1</title>
<path fill="none" stroke="grey" stroke-width="2" d="M27.99,-143.7C28.43,-135.98 28.96,-126.71 29.45,-118.11"/>
<polygon fill="grey" stroke="grey" stroke-width="2" points="32.95,-118.29 30.02,-108.1 25.96,-117.89 32.95,-118.29"/>
</g>
<!-- 3 -->
<g id="node4" class="node">
<title>3</title>
<path fill="none" stroke="#d8bc56" stroke-width="2" d="M170.5,-108C170.5,-108 91.5,-108 91.5,-108 85.5,-108 79.5,-102 79.5,-96 79.5,-96 79.5,-84 79.5,-84 79.5,-78 85.5,-72 91.5,-72 91.5,-72 170.5,-72 170.5,-72 176.5,-72 182.5,-78 182.5,-84 182.5,-84 182.5,-96 182.5,-96 182.5,-102 176.5,-108 170.5,-108"/>
<text text-anchor="middle" x="131" y="-87.5" font-family="sans" font-size="10.00">MultiQC_fqscreen</text>
</g>
<!-- 3&#45;&gt;0 -->
<g id="edge1" class="edge">
<title>3&#45;&gt;0</title>
<path fill="none" stroke="grey" stroke-width="2" d="M118.39,-71.7C112.4,-63.47 105.12,-53.48 98.52,-44.42"/>
<polygon fill="grey" stroke="grey" stroke-width="2" points="101.18,-42.13 92.46,-36.1 95.52,-46.25 101.18,-42.13"/>
</g>
<!-- 4 -->
<g id="node5" class="node">
<title>4</title>
<path fill="none" stroke="#56d88a" stroke-width="2" d="M183.5,-180C183.5,-180 84.5,-180 84.5,-180 78.5,-180 72.5,-174 72.5,-168 72.5,-168 72.5,-156 72.5,-156 72.5,-150 78.5,-144 84.5,-144 84.5,-144 183.5,-144 183.5,-144 189.5,-144 195.5,-150 195.5,-156 195.5,-156 195.5,-168 195.5,-168 195.5,-174 189.5,-180 183.5,-180"/>
<text text-anchor="middle" x="134" y="-159.5" font-family="sans" font-size="10.00">FastqScreen_mapping</text>
</g>
<!-- 4&#45;&gt;3 -->
<g id="edge4" class="edge">
<title>4&#45;&gt;3</title>
<path fill="none" stroke="grey" stroke-width="2" d="M133.26,-143.7C132.93,-135.98 132.53,-126.71 132.16,-118.11"/>
<polygon fill="grey" stroke="grey" stroke-width="2" points="135.66,-117.95 131.73,-108.1 128.66,-118.25 135.66,-117.95"/>
</g>
</g>
</svg>
