<?xml version="1.0" encoding="UTF-8" standalone="no"?>
<!DOCTYPE svg PUBLIC "-//W3C//DTD SVG 1.1//EN"
 "http://www.w3.org/Graphics/SVG/1.1/DTD/svg11.dtd">
<!-- Generated by graphviz version 2.43.0 (0)
 -->
<!-- Title: snakemake_dag Pages: 1 -->
<svg width="274pt" height="476pt"
 viewBox="0.00 0.00 273.50 476.00" xmlns="http://www.w3.org/2000/svg" xmlns:xlink="http://www.w3.org/1999/xlink">
<g id="graph0" class="graph" transform="scale(1 1) rotate(0) translate(4 472)">
<title>snakemake_dag</title>
<polygon fill="white" stroke="transparent" points="-4,4 -4,-472 269.5,-472 269.5,4 -4,4"/>
<!-- 0 -->
<g id="node1" class="node">
<title>0</title>
<path fill="none" stroke="#59d856" stroke-width="2" d="M124.5,-36C124.5,-36 94.5,-36 94.5,-36 88.5,-36 82.5,-30 82.5,-24 82.5,-24 82.5,-12 82.5,-12 82.5,-6 88.5,0 94.5,0 94.5,0 124.5,0 124.5,0 130.5,0 136.5,-6 136.5,-12 136.5,-12 136.5,-24 136.5,-24 136.5,-30 130.5,-36 124.5,-36"/>
<text text-anchor="middle" x="109.5" y="-15.5" font-family="sans" font-size="10.00">all</text>
</g>
<!-- 1 -->
<g id="node2" class="node">
<title>1</title>
<path fill="none" stroke="#d85656" stroke-width="2" d="M124.5,-108C124.5,-108 94.5,-108 94.5,-108 88.5,-108 82.5,-102 82.5,-96 82.5,-96 82.5,-84 82.5,-84 82.5,-78 88.5,-72 94.5,-72 94.5,-72 124.5,-72 124.5,-72 130.5,-72 136.5,-78 136.5,-84 136.5,-84 136.5,-96 136.5,-96 136.5,-102 130.5,-108 124.5,-108"/>
<text text-anchor="middle" x="109.5" y="-87.5" font-family="sans" font-size="10.00">clean</text>
</g>
<!-- 1&#45;&gt;0 -->
<g id="edge1" class="edge">
<title>1&#45;&gt;0</title>
<path fill="none" stroke="grey" stroke-width="2" d="M109.5,-71.7C109.5,-63.98 109.5,-54.71 109.5,-46.11"/>
<polygon fill="grey" stroke="grey" stroke-width="2" points="113,-46.1 109.5,-36.1 106,-46.1 113,-46.1"/>
</g>
<!-- 2 -->
<g id="node3" class="node">
<title>2</title>
<path fill="none" stroke="#569ad8" stroke-width="2" d="M141.5,-180C141.5,-180 77.5,-180 77.5,-180 71.5,-180 65.5,-174 65.5,-168 65.5,-168 65.5,-156 65.5,-156 65.5,-150 71.5,-144 77.5,-144 77.5,-144 141.5,-144 141.5,-144 147.5,-144 153.5,-150 153.5,-156 153.5,-156 153.5,-168 153.5,-168 153.5,-174 147.5,-180 141.5,-180"/>
<text text-anchor="middle" x="109.5" y="-159.5" font-family="sans" font-size="10.00">general_report</text>
</g>
<!-- 2&#45;&gt;1 -->
<g id="edge2" class="edge">
<title>2&#45;&gt;1</title>
<path fill="none" stroke="grey" stroke-width="2" d="M109.5,-143.7C109.5,-135.98 109.5,-126.71 109.5,-118.11"/>
<polygon fill="grey" stroke="grey" stroke-width="2" points="113,-118.1 109.5,-108.1 106,-118.1 113,-118.1"/>
</g>
<!-- 3 -->
<g id="node4" class="node">
<title>3</title>
<path fill="none" stroke="#56d89a" stroke-width="2" d="M183,-252C183,-252 36,-252 36,-252 30,-252 24,-246 24,-240 24,-240 24,-228 24,-228 24,-222 30,-216 36,-216 36,-216 183,-216 183,-216 189,-216 195,-222 195,-228 195,-228 195,-240 195,-240 195,-246 189,-252 183,-252"/>
<text text-anchor="middle" x="109.5" y="-231.5" font-family="sans" font-size="10.00">enrichment_summary_goatools</text>
</g>
<!-- 3&#45;&gt;2 -->
<g id="edge3" class="edge">
<title>3&#45;&gt;2</title>
<path fill="none" stroke="grey" stroke-width="2" d="M109.5,-215.7C109.5,-207.98 109.5,-198.71 109.5,-190.11"/>
<polygon fill="grey" stroke="grey" stroke-width="2" points="113,-190.1 109.5,-180.1 106,-190.1 113,-190.1"/>
</g>
<!-- 4 -->
<g id="node5" class="node">
<title>4</title>
<path fill="none" stroke="#56d8d8" stroke-width="2" d="M127,-324C127,-324 92,-324 92,-324 86,-324 80,-318 80,-312 80,-312 80,-300 80,-300 80,-294 86,-288 92,-288 92,-288 127,-288 127,-288 133,-288 139,-294 139,-300 139,-300 139,-312 139,-312 139,-318 133,-324 127,-324"/>
<text text-anchor="middle" x="109.5" y="-303.5" font-family="sans" font-size="10.00">goatools</text>
</g>
<!-- 4&#45;&gt;3 -->
<g id="edge4" class="edge">
<title>4&#45;&gt;3</title>
<path fill="none" stroke="grey" stroke-width="2" d="M109.5,-287.7C109.5,-279.98 109.5,-270.71 109.5,-262.11"/>
<polygon fill="grey" stroke="grey" stroke-width="2" points="113,-262.1 109.5,-252.1 106,-262.1 113,-262.1"/>
</g>
<!-- 5 -->
<g id="node6" class="node">
<title>5</title>
<path fill="none" stroke="#d89556" stroke-width="2" d="M65,-396C65,-396 12,-396 12,-396 6,-396 0,-390 0,-384 0,-384 0,-372 0,-372 0,-366 6,-360 12,-360 12,-360 65,-360 65,-360 71,-360 77,-366 77,-372 77,-372 77,-384 77,-384 77,-390 71,-396 65,-396"/>
<text text-anchor="middle" x="38.5" y="-375.5" font-family="sans" font-size="10.00">ref_goatools</text>
</g>
<!-- 5&#45;&gt;4 -->
<g id="edge6" class="edge">
<title>5&#45;&gt;4</title>
<path fill="none" stroke="grey" stroke-width="2" d="M56.05,-359.7C64.73,-351.14 75.36,-340.66 84.85,-331.3"/>
<polygon fill="grey" stroke="grey" stroke-width="2" points="87.49,-333.62 92.15,-324.1 82.57,-328.63 87.49,-333.62"/>
</g>
<!-- 6 -->
<g id="node7" class="node">
<title>6</title>
<path fill="none" stroke="#d6d856" stroke-width="2" d="M253.5,-396C253.5,-396 107.5,-396 107.5,-396 101.5,-396 95.5,-390 95.5,-384 95.5,-384 95.5,-372 95.5,-372 95.5,-366 101.5,-360 107.5,-360 107.5,-360 253.5,-360 253.5,-360 259.5,-360 265.5,-366 265.5,-372 265.5,-372 265.5,-384 265.5,-384 265.5,-390 259.5,-396 253.5,-396"/>
<text text-anchor="middle" x="180.5" y="-375.5" font-family="sans" font-size="10.00">enrichment_summary_gprofiler</text>
</g>
<!-- 6&#45;&gt;4 -->
<g id="edge5" class="edge">
<title>6&#45;&gt;4</title>
<path fill="none" stroke="grey" stroke-width="2" d="M162.95,-359.7C154.27,-351.14 143.64,-340.66 134.15,-331.3"/>
<polygon fill="grey" stroke="grey" stroke-width="2" points="136.43,-328.63 126.85,-324.1 131.51,-333.62 136.43,-328.63"/>
</g>
<!-- 7 -->
<g id="node8" class="node">
<title>7</title>
<path fill="none" stroke="#97d856" stroke-width="2" d="M197,-468C197,-468 164,-468 164,-468 158,-468 152,-462 152,-456 152,-456 152,-444 152,-444 152,-438 158,-432 164,-432 164,-432 197,-432 197,-432 203,-432 209,-438 209,-444 209,-444 209,-456 209,-456 209,-462 203,-468 197,-468"/>
<text text-anchor="middle" x="180.5" y="-447.5" font-family="sans" font-size="10.00">gprofiler</text>
</g>
<!-- 7&#45;&gt;6 -->
<g id="edge7" class="edge">
<title>7&#45;&gt;6</title>
<path fill="none" stroke="grey" stroke-width="2" d="M180.5,-431.7C180.5,-423.98 180.5,-414.71 180.5,-406.11"/>
<polygon fill="grey" stroke="grey" stroke-width="2" points="184,-406.1 180.5,-396.1 177,-406.1 184,-406.1"/>
</g>
</g>
</svg>
