<?xml version="1.0" encoding="UTF-8" standalone="no"?>
<!DOCTYPE svg PUBLIC "-//W3C//DTD SVG 1.1//EN"
 "http://www.w3.org/Graphics/SVG/1.1/DTD/svg11.dtd">
<!-- Generated by graphviz version 2.43.0 (0)
 -->
<!-- Title: snakemake_dag Pages: 1 -->
<svg width="158pt" height="332pt"
 viewBox="0.00 0.00 158.00 332.00" xmlns="http://www.w3.org/2000/svg" xmlns:xlink="http://www.w3.org/1999/xlink">
<g id="graph0" class="graph" transform="scale(1 1) rotate(0) translate(4 328)">
<title>snakemake_dag</title>
<polygon fill="white" stroke="transparent" points="-4,4 -4,-328 154,-328 154,4 -4,4"/>
<!-- 0 -->
<g id="node1" class="node">
<title>0</title>
<path fill="none" stroke="#56c1d8" stroke-width="2" d="M70.5,-36C70.5,-36 40.5,-36 40.5,-36 34.5,-36 28.5,-30 28.5,-24 28.5,-24 28.5,-12 28.5,-12 28.5,-6 34.5,0 40.5,0 40.5,0 70.5,0 70.5,0 76.5,0 82.5,-6 82.5,-12 82.5,-12 82.5,-24 82.5,-24 82.5,-30 76.5,-36 70.5,-36"/>
<text text-anchor="middle" x="55.5" y="-15.5" font-family="sans" font-size="10.00">all</text>
</g>
<!-- 1 -->
<g id="node2" class="node">
<title>1</title>
<path fill="none" stroke="#88d856" stroke-width="2" d="M99,-180C99,-180 12,-180 12,-180 6,-180 0,-174 0,-168 0,-168 0,-156 0,-156 0,-150 6,-144 12,-144 12,-144 99,-144 99,-144 105,-144 111,-150 111,-156 111,-156 111,-168 111,-168 111,-174 105,-180 99,-180"/>
<text text-anchor="middle" x="55.5" y="-159.5" font-family="sans" font-size="10.00">MergeHTSeqcounts</text>
</g>
<!-- 1&#45;&gt;0 -->
<g id="edge2" class="edge">
<title>1&#45;&gt;0</title>
<path fill="none" stroke="grey" stroke-width="2" d="M46.78,-143.83C42.13,-133.69 36.88,-120.44 34.5,-108 31.5,-92.28 31.5,-87.72 34.5,-72 36.21,-63.06 39.4,-53.7 42.79,-45.37"/>
<polygon fill="grey" stroke="grey" stroke-width="2" points="46.01,-46.73 46.78,-36.17 39.59,-43.95 46.01,-46.73"/>
</g>
<!-- 4 -->
<g id="node5" class="node">
<title>4</title>
<path fill="none" stroke="#d85656" stroke-width="2" d="M138,-108C138,-108 55,-108 55,-108 49,-108 43,-102 43,-96 43,-96 43,-84 43,-84 43,-78 49,-72 55,-72 55,-72 138,-72 138,-72 144,-72 150,-78 150,-84 150,-84 150,-96 150,-96 150,-102 144,-108 138,-108"/>
<text text-anchor="middle" x="96.5" y="-87.5" font-family="sans" font-size="10.00">MDS_on_raw_data</text>
</g>
<!-- 1&#45;&gt;4 -->
<g id="edge5" class="edge">
<title>1&#45;&gt;4</title>
<path fill="none" stroke="grey" stroke-width="2" d="M65.63,-143.7C70.35,-135.64 76.06,-125.89 81.28,-116.98"/>
<polygon fill="grey" stroke="grey" stroke-width="2" points="84.45,-118.5 86.48,-108.1 78.41,-114.96 84.45,-118.5"/>
</g>
<!-- 2 -->
<g id="node3" class="node">
<title>2</title>
<path fill="none" stroke="#d8bc56" stroke-width="2" d="M89.5,-252C89.5,-252 21.5,-252 21.5,-252 15.5,-252 9.5,-246 9.5,-240 9.5,-240 9.5,-228 9.5,-228 9.5,-222 15.5,-216 21.5,-216 21.5,-216 89.5,-216 89.5,-216 95.5,-216 101.5,-222 101.5,-228 101.5,-228 101.5,-240 101.5,-240 101.5,-246 95.5,-252 89.5,-252"/>
<text text-anchor="middle" x="55.5" y="-231.5" font-family="sans" font-size="10.00">MultiQC_HTSeq</text>
</g>
<!-- 2&#45;&gt;1 -->
<g id="edge3" class="edge">
<title>2&#45;&gt;1</title>
<path fill="none" stroke="grey" stroke-width="2" d="M55.5,-215.7C55.5,-207.98 55.5,-198.71 55.5,-190.11"/>
<polygon fill="grey" stroke="grey" stroke-width="2" points="59,-190.1 55.5,-180.1 52,-190.1 59,-190.1"/>
</g>
<!-- 3 -->
<g id="node4" class="node">
<title>3</title>
<path fill="none" stroke="#56d88a" stroke-width="2" d="M70.5,-324C70.5,-324 40.5,-324 40.5,-324 34.5,-324 28.5,-318 28.5,-312 28.5,-312 28.5,-300 28.5,-300 28.5,-294 34.5,-288 40.5,-288 40.5,-288 70.5,-288 70.5,-288 76.5,-288 82.5,-294 82.5,-300 82.5,-300 82.5,-312 82.5,-312 82.5,-318 76.5,-324 70.5,-324"/>
<text text-anchor="middle" x="55.5" y="-303.5" font-family="sans" font-size="10.00">HTSEQ</text>
</g>
<!-- 3&#45;&gt;2 -->
<g id="edge4" class="edge">
<title>3&#45;&gt;2</title>
<path fill="none" stroke="grey" stroke-width="2" d="M55.5,-287.7C55.5,-279.98 55.5,-270.71 55.5,-262.11"/>
<polygon fill="grey" stroke="grey" stroke-width="2" points="59,-262.1 55.5,-252.1 52,-262.1 59,-262.1"/>
</g>
<!-- 4&#45;&gt;0 -->
<g id="edge1" class="edge">
<title>4&#45;&gt;0</title>
<path fill="none" stroke="grey" stroke-width="2" d="M86.37,-71.7C81.65,-63.64 75.94,-53.89 70.72,-44.98"/>
<polygon fill="grey" stroke="grey" stroke-width="2" points="73.59,-42.96 65.52,-36.1 67.55,-46.5 73.59,-42.96"/>
</g>
</g>
</svg>
