<?xml version="1.0" encoding="UTF-8" standalone="no"?>
<!DOCTYPE svg PUBLIC "-//W3C//DTD SVG 1.1//EN"
 "http://www.w3.org/Graphics/SVG/1.1/DTD/svg11.dtd">
<!-- Generated by graphviz version 2.43.0 (0)
 -->
<!-- Title: snakemake_dag Pages: 1 -->
<svg width="142pt" height="332pt"
 viewBox="0.00 0.00 141.50 332.00" xmlns="http://www.w3.org/2000/svg" xmlns:xlink="http://www.w3.org/1999/xlink">
<g id="graph0" class="graph" transform="scale(1 1) rotate(0) translate(4 328)">
<title>snakemake_dag</title>
<polygon fill="white" stroke="transparent" points="-4,4 -4,-328 137.5,-328 137.5,4 -4,4"/>
<!-- 0 -->
<g id="node1" class="node">
<title>0</title>
<path fill="none" stroke="#56d88a" stroke-width="2" d="M69.5,-36C69.5,-36 39.5,-36 39.5,-36 33.5,-36 27.5,-30 27.5,-24 27.5,-24 27.5,-12 27.5,-12 27.5,-6 33.5,0 39.5,0 39.5,0 69.5,0 69.5,0 75.5,0 81.5,-6 81.5,-12 81.5,-12 81.5,-24 81.5,-24 81.5,-30 75.5,-36 69.5,-36"/>
<text text-anchor="middle" x="54.5" y="-15.5" font-family="sans" font-size="10.00">all</text>
</g>
<!-- 1 -->
<g id="node2" class="node">
<title>1</title>
<path fill="none" stroke="#d8bc56" stroke-width="2" d="M97,-180C97,-180 12,-180 12,-180 6,-180 0,-174 0,-168 0,-168 0,-156 0,-156 0,-150 6,-144 12,-144 12,-144 97,-144 97,-144 103,-144 109,-150 109,-156 109,-156 109,-168 109,-168 109,-174 103,-180 97,-180"/>
<text text-anchor="middle" x="54.5" y="-159.5" font-family="sans" font-size="10.00">MultiQC_after_trim</text>
</g>
<!-- 1&#45;&gt;0 -->
<g id="edge2" class="edge">
<title>1&#45;&gt;0</title>
<path fill="none" stroke="grey" stroke-width="2" d="M47.85,-143.63C44.3,-133.42 40.3,-120.17 38.5,-108 36.16,-92.17 36.16,-87.83 38.5,-72 39.78,-63.35 42.17,-54.15 44.72,-45.89"/>
<polygon fill="grey" stroke="grey" stroke-width="2" points="48.05,-46.96 47.85,-36.37 41.4,-44.78 48.05,-46.96"/>
</g>
<!-- 4 -->
<g id="node5" class="node">
<title>4</title>
<path fill="none" stroke="#56c1d8" stroke-width="2" d="M121.5,-108C121.5,-108 59.5,-108 59.5,-108 53.5,-108 47.5,-102 47.5,-96 47.5,-96 47.5,-84 47.5,-84 47.5,-78 53.5,-72 59.5,-72 59.5,-72 121.5,-72 121.5,-72 127.5,-72 133.5,-78 133.5,-84 133.5,-84 133.5,-96 133.5,-96 133.5,-102 127.5,-108 121.5,-108"/>
<text text-anchor="middle" x="90.5" y="-87.5" font-family="sans" font-size="10.00">MultiQC_Fastp</text>
</g>
<!-- 1&#45;&gt;4 -->
<g id="edge5" class="edge">
<title>1&#45;&gt;4</title>
<path fill="none" stroke="grey" stroke-width="2" d="M63.4,-143.7C67.5,-135.73 72.45,-126.1 76.99,-117.26"/>
<polygon fill="grey" stroke="grey" stroke-width="2" points="80.24,-118.6 81.7,-108.1 74.02,-115.4 80.24,-118.6"/>
</g>
<!-- 2 -->
<g id="node3" class="node">
<title>2</title>
<path fill="none" stroke="#88d856" stroke-width="2" d="M94.5,-252C94.5,-252 14.5,-252 14.5,-252 8.5,-252 2.5,-246 2.5,-240 2.5,-240 2.5,-228 2.5,-228 2.5,-222 8.5,-216 14.5,-216 14.5,-216 94.5,-216 94.5,-216 100.5,-216 106.5,-222 106.5,-228 106.5,-228 106.5,-240 106.5,-240 106.5,-246 100.5,-252 94.5,-252"/>
<text text-anchor="middle" x="54.5" y="-231.5" font-family="sans" font-size="10.00">FastQC_after_trim</text>
</g>
<!-- 2&#45;&gt;1 -->
<g id="edge3" class="edge">
<title>2&#45;&gt;1</title>
<path fill="none" stroke="grey" stroke-width="2" d="M54.5,-215.7C54.5,-207.98 54.5,-198.71 54.5,-190.11"/>
<polygon fill="grey" stroke="grey" stroke-width="2" points="58,-190.1 54.5,-180.1 51,-190.1 58,-190.1"/>
</g>
<!-- 3 -->
<g id="node4" class="node">
<title>3</title>
<path fill="none" stroke="#d85656" stroke-width="2" d="M69.5,-324C69.5,-324 39.5,-324 39.5,-324 33.5,-324 27.5,-318 27.5,-312 27.5,-312 27.5,-300 27.5,-300 27.5,-294 33.5,-288 39.5,-288 39.5,-288 69.5,-288 69.5,-288 75.5,-288 81.5,-294 81.5,-300 81.5,-300 81.5,-312 81.5,-312 81.5,-318 75.5,-324 69.5,-324"/>
<text text-anchor="middle" x="54.5" y="-303.5" font-family="sans" font-size="10.00">Fastp</text>
</g>
<!-- 3&#45;&gt;2 -->
<g id="edge4" class="edge">
<title>3&#45;&gt;2</title>
<path fill="none" stroke="grey" stroke-width="2" d="M54.5,-287.7C54.5,-279.98 54.5,-270.71 54.5,-262.11"/>
<polygon fill="grey" stroke="grey" stroke-width="2" points="58,-262.1 54.5,-252.1 51,-262.1 58,-262.1"/>
</g>
<!-- 4&#45;&gt;0 -->
<g id="edge1" class="edge">
<title>4&#45;&gt;0</title>
<path fill="none" stroke="grey" stroke-width="2" d="M81.6,-71.7C77.5,-63.73 72.55,-54.1 68.01,-45.26"/>
<polygon fill="grey" stroke="grey" stroke-width="2" points="70.98,-43.4 63.3,-36.1 64.76,-46.6 70.98,-43.4"/>
</g>
</g>
</svg>
