<?xml version="1.0" encoding="UTF-8" standalone="no"?>
<!DOCTYPE svg PUBLIC "-//W3C//DTD SVG 1.1//EN"
 "http://www.w3.org/Graphics/SVG/1.1/DTD/svg11.dtd">
<!-- Generated by graphviz version 2.43.0 (0)
 -->
<!-- Title: snakemake_dag Pages: 1 -->
<svg width="168pt" height="332pt"
 viewBox="0.00 0.00 168.00 332.00" xmlns="http://www.w3.org/2000/svg" xmlns:xlink="http://www.w3.org/1999/xlink">
<g id="graph0" class="graph" transform="scale(1 1) rotate(0) translate(4 328)">
<title>snakemake_dag</title>
<polygon fill="white" stroke="transparent" points="-4,4 -4,-328 164,-328 164,4 -4,4"/>
<!-- 0 -->
<g id="node1" class="node">
<title>0</title>
<path fill="none" stroke="#d8bc56" stroke-width="2" d="M80.5,-36C80.5,-36 50.5,-36 50.5,-36 44.5,-36 38.5,-30 38.5,-24 38.5,-24 38.5,-12 38.5,-12 38.5,-6 44.5,0 50.5,0 50.5,0 80.5,0 80.5,0 86.5,0 92.5,-6 92.5,-12 92.5,-12 92.5,-24 92.5,-24 92.5,-30 86.5,-36 80.5,-36"/>
<text text-anchor="middle" x="65.5" y="-15.5" font-family="sans" font-size="10.00">all</text>
</g>
<!-- 1 -->
<g id="node2" class="node">
<title>1</title>
<path fill="none" stroke="#56c1d8" stroke-width="2" d="M112.5,-180C112.5,-180 18.5,-180 18.5,-180 12.5,-180 6.5,-174 6.5,-168 6.5,-168 6.5,-156 6.5,-156 6.5,-150 12.5,-144 18.5,-144 18.5,-144 112.5,-144 112.5,-144 118.5,-144 124.5,-150 124.5,-156 124.5,-156 124.5,-168 124.5,-168 124.5,-174 118.5,-180 112.5,-180"/>
<text text-anchor="middle" x="65.5" y="-159.5" font-family="sans" font-size="10.00">MergeFeatureCounts</text>
</g>
<!-- 1&#45;&gt;0 -->
<g id="edge2" class="edge">
<title>1&#45;&gt;0</title>
<path fill="none" stroke="grey" stroke-width="2" d="M56.78,-143.83C52.13,-133.69 46.88,-120.44 44.5,-108 41.5,-92.28 41.5,-87.72 44.5,-72 46.21,-63.06 49.4,-53.7 52.79,-45.37"/>
<polygon fill="grey" stroke="grey" stroke-width="2" points="56.01,-46.73 56.78,-36.17 49.59,-43.95 56.01,-46.73"/>
</g>
<!-- 4 -->
<g id="node5" class="node">
<title>4</title>
<path fill="none" stroke="#88d856" stroke-width="2" d="M148,-108C148,-108 65,-108 65,-108 59,-108 53,-102 53,-96 53,-96 53,-84 53,-84 53,-78 59,-72 65,-72 65,-72 148,-72 148,-72 154,-72 160,-78 160,-84 160,-84 160,-96 160,-96 160,-102 154,-108 148,-108"/>
<text text-anchor="middle" x="106.5" y="-87.5" font-family="sans" font-size="10.00">MDS_on_raw_data</text>
</g>
<!-- 1&#45;&gt;4 -->
<g id="edge5" class="edge">
<title>1&#45;&gt;4</title>
<path fill="none" stroke="grey" stroke-width="2" d="M75.63,-143.7C80.35,-135.64 86.06,-125.89 91.28,-116.98"/>
<polygon fill="grey" stroke="grey" stroke-width="2" points="94.45,-118.5 96.48,-108.1 88.41,-114.96 94.45,-118.5"/>
</g>
<!-- 2 -->
<g id="node3" class="node">
<title>2</title>
<path fill="none" stroke="#56d88a" stroke-width="2" d="M119,-252C119,-252 12,-252 12,-252 6,-252 0,-246 0,-240 0,-240 0,-228 0,-228 0,-222 6,-216 12,-216 12,-216 119,-216 119,-216 125,-216 131,-222 131,-228 131,-228 131,-240 131,-240 131,-246 125,-252 119,-252"/>
<text text-anchor="middle" x="65.5" y="-231.5" font-family="sans" font-size="10.00">MultiQC_FeatureCounts</text>
</g>
<!-- 2&#45;&gt;1 -->
<g id="edge3" class="edge">
<title>2&#45;&gt;1</title>
<path fill="none" stroke="grey" stroke-width="2" d="M65.5,-215.7C65.5,-207.98 65.5,-198.71 65.5,-190.11"/>
<polygon fill="grey" stroke="grey" stroke-width="2" points="69,-190.1 65.5,-180.1 62,-190.1 69,-190.1"/>
</g>
<!-- 3 -->
<g id="node4" class="node">
<title>3</title>
<path fill="none" stroke="#d85656" stroke-width="2" d="M97,-324C97,-324 34,-324 34,-324 28,-324 22,-318 22,-312 22,-312 22,-300 22,-300 22,-294 28,-288 34,-288 34,-288 97,-288 97,-288 103,-288 109,-294 109,-300 109,-300 109,-312 109,-312 109,-318 103,-324 97,-324"/>
<text text-anchor="middle" x="65.5" y="-303.5" font-family="sans" font-size="10.00">FeatureCounts</text>
</g>
<!-- 3&#45;&gt;2 -->
<g id="edge4" class="edge">
<title>3&#45;&gt;2</title>
<path fill="none" stroke="grey" stroke-width="2" d="M65.5,-287.7C65.5,-279.98 65.5,-270.71 65.5,-262.11"/>
<polygon fill="grey" stroke="grey" stroke-width="2" points="69,-262.1 65.5,-252.1 62,-262.1 69,-262.1"/>
</g>
<!-- 4&#45;&gt;0 -->
<g id="edge1" class="edge">
<title>4&#45;&gt;0</title>
<path fill="none" stroke="grey" stroke-width="2" d="M96.37,-71.7C91.65,-63.64 85.94,-53.89 80.72,-44.98"/>
<polygon fill="grey" stroke="grey" stroke-width="2" points="83.59,-42.96 75.52,-36.1 77.55,-46.5 83.59,-42.96"/>
</g>
</g>
</svg>
