<?xml version="1.0" encoding="UTF-8" standalone="no"?>
<!DOCTYPE svg PUBLIC "-//W3C//DTD SVG 1.1//EN"
 "http://www.w3.org/Graphics/SVG/1.1/DTD/svg11.dtd">
<!-- Generated by graphviz version 2.43.0 (0)
 -->
<!-- Title: snakemake_dag Pages: 1 -->
<svg width="104pt" height="476pt"
 viewBox="0.00 0.00 104.00 476.00" xmlns="http://www.w3.org/2000/svg" xmlns:xlink="http://www.w3.org/1999/xlink">
<g id="graph0" class="graph" transform="scale(1 1) rotate(0) translate(4 472)">
<title>snakemake_dag</title>
<polygon fill="white" stroke="transparent" points="-4,4 -4,-472 100,-472 100,4 -4,4"/>
<!-- 0 -->
<g id="node1" class="node">
<title>0</title>
<path fill="none" stroke="#56a2d8" stroke-width="2" d="M63,-36C63,-36 33,-36 33,-36 27,-36 21,-30 21,-24 21,-24 21,-12 21,-12 21,-6 27,0 33,0 33,0 63,0 63,0 69,0 75,-6 75,-12 75,-12 75,-24 75,-24 75,-30 69,-36 63,-36"/>
<text text-anchor="middle" x="48" y="-15.5" font-family="sans" font-size="10.00">all</text>
</g>
<!-- 1 -->
<g id="node2" class="node">
<title>1</title>
<path fill="none" stroke="#d8a456" stroke-width="2" d="M79,-108C79,-108 17,-108 17,-108 11,-108 5,-102 5,-96 5,-96 5,-84 5,-84 5,-78 11,-72 17,-72 17,-72 79,-72 79,-72 85,-72 91,-78 91,-84 91,-84 91,-96 91,-96 91,-102 85,-108 79,-108"/>
<text text-anchor="middle" x="48" y="-87.5" font-family="sans" font-size="10.00">MultiQC_STAR</text>
</g>
<!-- 1&#45;&gt;0 -->
<g id="edge1" class="edge">
<title>1&#45;&gt;0</title>
<path fill="none" stroke="grey" stroke-width="2" d="M48,-71.7C48,-63.98 48,-54.71 48,-46.11"/>
<polygon fill="grey" stroke="grey" stroke-width="2" points="51.5,-46.1 48,-36.1 44.5,-46.1 51.5,-46.1"/>
</g>
<!-- 2 -->
<g id="node3" class="node">
<title>2</title>
<path fill="none" stroke="#c6d856" stroke-width="2" d="M83.5,-180C83.5,-180 12.5,-180 12.5,-180 6.5,-180 0.5,-174 0.5,-168 0.5,-168 0.5,-156 0.5,-156 0.5,-150 6.5,-144 12.5,-144 12.5,-144 83.5,-144 83.5,-144 89.5,-144 95.5,-150 95.5,-156 95.5,-156 95.5,-168 95.5,-168 95.5,-174 89.5,-180 83.5,-180"/>
<text text-anchor="middle" x="48" y="-159.5" font-family="sans" font-size="10.00">Samtools_index</text>
</g>
<!-- 2&#45;&gt;1 -->
<g id="edge2" class="edge">
<title>2&#45;&gt;1</title>
<path fill="none" stroke="grey" stroke-width="2" d="M48,-143.7C48,-135.98 48,-126.71 48,-118.11"/>
<polygon fill="grey" stroke="grey" stroke-width="2" points="51.5,-118.1 48,-108.1 44.5,-118.1 51.5,-118.1"/>
</g>
<!-- 3 -->
<g id="node4" class="node">
<title>3</title>
<path fill="none" stroke="#d85656" stroke-width="2" d="M67.5,-252C67.5,-252 28.5,-252 28.5,-252 22.5,-252 16.5,-246 16.5,-240 16.5,-240 16.5,-228 16.5,-228 16.5,-222 22.5,-216 28.5,-216 28.5,-216 67.5,-216 67.5,-216 73.5,-216 79.5,-222 79.5,-228 79.5,-228 79.5,-240 79.5,-240 79.5,-246 73.5,-252 67.5,-252"/>
<text text-anchor="middle" x="48" y="-231.5" font-family="sans" font-size="10.00">Sort_bam</text>
</g>
<!-- 3&#45;&gt;2 -->
<g id="edge3" class="edge">
<title>3&#45;&gt;2</title>
<path fill="none" stroke="grey" stroke-width="2" d="M48,-215.7C48,-207.98 48,-198.71 48,-190.11"/>
<polygon fill="grey" stroke="grey" stroke-width="2" points="51.5,-190.1 48,-180.1 44.5,-190.1 51.5,-190.1"/>
</g>
<!-- 4 -->
<g id="node5" class="node">
<title>4</title>
<path fill="none" stroke="#56d8c9" stroke-width="2" d="M81.5,-324C81.5,-324 14.5,-324 14.5,-324 8.5,-324 2.5,-318 2.5,-312 2.5,-312 2.5,-300 2.5,-300 2.5,-294 8.5,-288 14.5,-288 14.5,-288 81.5,-288 81.5,-288 87.5,-288 93.5,-294 93.5,-300 93.5,-300 93.5,-312 93.5,-312 93.5,-318 87.5,-324 81.5,-324"/>
<text text-anchor="middle" x="48" y="-303.5" font-family="sans" font-size="10.00">Samtools_view</text>
</g>
<!-- 4&#45;&gt;3 -->
<g id="edge4" class="edge">
<title>4&#45;&gt;3</title>
<path fill="none" stroke="grey" stroke-width="2" d="M48,-287.7C48,-279.98 48,-270.71 48,-262.11"/>
<polygon fill="grey" stroke="grey" stroke-width="2" points="51.5,-262.1 48,-252.1 44.5,-262.1 51.5,-262.1"/>
</g>
<!-- 5 -->
<g id="node6" class="node">
<title>5</title>
<path fill="none" stroke="#78d856" stroke-width="2" d="M84,-396C84,-396 12,-396 12,-396 6,-396 0,-390 0,-384 0,-384 0,-372 0,-372 0,-366 6,-360 12,-360 12,-360 84,-360 84,-360 90,-360 96,-366 96,-372 96,-372 96,-384 96,-384 96,-390 90,-396 84,-396"/>
<text text-anchor="middle" x="48" y="-375.5" font-family="sans" font-size="10.00">STAR_alignment</text>
</g>
<!-- 5&#45;&gt;4 -->
<g id="edge5" class="edge">
<title>5&#45;&gt;4</title>
<path fill="none" stroke="grey" stroke-width="2" d="M48,-359.7C48,-351.98 48,-342.71 48,-334.11"/>
<polygon fill="grey" stroke="grey" stroke-width="2" points="51.5,-334.1 48,-324.1 44.5,-334.1 51.5,-334.1"/>
</g>
<!-- 6 -->
<g id="node7" class="node">
<title>6</title>
<path fill="none" stroke="#56d87b" stroke-width="2" d="M70,-468C70,-468 26,-468 26,-468 20,-468 14,-462 14,-456 14,-456 14,-444 14,-444 14,-438 20,-432 26,-432 26,-432 70,-432 70,-432 76,-432 82,-438 82,-444 82,-444 82,-456 82,-456 82,-462 76,-468 70,-468"/>
<text text-anchor="middle" x="48" y="-447.5" font-family="sans" font-size="10.00">IndexSTAR</text>
</g>
<!-- 6&#45;&gt;5 -->
<g id="edge6" class="edge">
<title>6&#45;&gt;5</title>
<path fill="none" stroke="grey" stroke-width="2" d="M48,-431.7C48,-423.98 48,-414.71 48,-406.11"/>
<polygon fill="grey" stroke="grey" stroke-width="2" points="51.5,-406.1 48,-396.1 44.5,-406.1 51.5,-406.1"/>
</g>
</g>
</svg>
